<?xml version="1.0" encoding="UTF-8" standalone="no"?>
<!-- Uploaded to: SVG Repo, www.svgrepo.com, Generator: SVG Repo Mixer Tools -->

<svg
   width="800px"
   height="800px"
   viewBox="0 0 24 24"
   fill="none"
   version="1.1"
   id="svg1"
   sodipodi:docname="book-svgrepo-com.svg"
   inkscape:version="1.4.2 (ebf0e940, 2025-05-08)"
   xmlns:inkscape="http://www.inkscape.org/namespaces/inkscape"
   xmlns:sodipodi="http://sodipodi.sourceforge.net/DTD/sodipodi-0.dtd"
   xmlns="http://www.w3.org/2000/svg"
   xmlns:svg="http://www.w3.org/2000/svg">
  <defs
     id="defs1" />
  <sodipodi:namedview
     id="namedview1"
     pagecolor="#505050"
     bordercolor="#ffffff"
     borderopacity="1"
     inkscape:showpageshadow="0"
     inkscape:pageopacity="0"
     inkscape:pagecheckerboard="1"
     inkscape:deskcolor="#505050"
     inkscape:zoom="0.92125"
     inkscape:cx="398.91452"
     inkscape:cy="399.45726"
     inkscape:window-width="1920"
     inkscape:window-height="1027"
     inkscape:window-x="1440"
     inkscape:window-y="25"
     inkscape:window-maximized="1"
     inkscape:current-layer="svg1"
     showgrid="false" />
  <path
     d="M4 19V6.2C4 5.0799 4 4.51984 4.21799 4.09202C4.40973 3.71569 4.71569 3.40973 5.09202 3.21799C5.51984 3 6.0799 3 7.2 3H16.8C17.9201 3 18.4802 3 18.908 3.21799C19.2843 3.40973 19.5903 3.71569 19.782 4.09202C20 4.51984 20 5.0799 20 6.2V17H6C4.89543 17 4 17.8954 4 19ZM4 19C4 20.1046 4.89543 21 6 21H20M9 7H15M9 11H15M19 17V21"
     stroke="#000000"
     stroke-width="2"
     stroke-linecap="round"
     stroke-linejoin="round"
     id="path1" />
  <path
     style="fill:#b9006c;stroke-width:1.08548;fill-opacity:1"
     d="m 192.13026,732.53153 c -45.60857,-4.53989 -82.45551,-38.25927 -90.0311,-82.38926 -0.98309,-5.72679 -1.20409,-66.32933 -0.92008,-252.31323 l 0.37378,-244.77612 2.34415,-10.12219 c 6.19126,-26.73425 25.42609,-51.296999 50.22786,-64.140647 9.5263,-4.933217 16.41174,-7.129883 29.86428,-9.527619 8.65066,-1.541868 31.45901,-1.79305 199.18588,-2.19358 205.04201,-0.489638 225.29949,-0.11961 243.28977,4.444002 34.33112,8.708803 61.58282,36.745734 69.69282,71.700944 2.27207,9.79291 2.28432,10.82733 2.61169,220.40508 l 0.32892,210.56599 -3.32946,6.76307 c -4.82522,9.80141 -13.73403,16.37418 -24.66972,18.20088 l -4.6133,0.77061 v 33.41578 33.41578 l 4.56719,0.73033 c 11.09572,1.77428 19.60149,8.05853 24.68999,18.24153 8.34177,16.69336 1.29797,35.95701 -16.13752,44.13349 l -6.06403,2.84377 -238.80597,0.10478 c -131.34328,0.0576 -240.5156,-0.0654 -242.60515,-0.27339 z M 600.27137,633.37856 V 599.72863 H 396.93692 c -228.41819,0 -208.79704,-0.75229 -218.97167,8.39558 -3.02156,2.71664 -6.79021,7.43424 -8.37477,10.48355 -4.17649,8.03721 -4.17649,21.50439 0,29.5416 1.58456,3.04932 5.30958,7.72769 8.27781,10.39638 10.1005,9.08122 -9.18687,8.34053 219.14664,8.41578 l 203.25644,0.067 z m -411.9403,-98.66064 c 6.82452,-0.83657 75.45514,-1.19848 227.67978,-1.20061 l 217.91045,-0.003 -0.0188,-179.37585 c -0.0114,-109.10884 -0.4345,-183.32182 -1.07998,-189.44901 -0.62649,-5.94704 -1.93055,-11.77728 -3.18358,-14.23345 -3.33026,-6.52785 -12.10664,-13.75999 -18.78,-15.47559 -8.46265,-2.17558 -413.25521,-2.17558 -421.71787,0 -6.67334,1.7156 -15.44973,8.94774 -18.77998,15.47559 -1.25305,2.45617 -2.5571,8.28641 -3.18359,14.23345 -0.64627,6.13468 -1.06853,81.43558 -1.07998,192.59163 l -0.0188,182.51847 6.24152,-1.942 c 3.43283,-1.06811 10.63772,-2.48091 16.01085,-3.13957 z"
     id="path2"
     transform="scale(0.03)" />
  <path
     style="fill:#b9006c;stroke-width:1.08548;fill-opacity:1"
     d="m 294.30854,398.84604 c -16.03358,-3.20433 -26.67857,-15.95395 -26.67857,-31.95323 0,-12.8349 6.5151,-23.34479 18.39445,-29.67316 l 5.42741,-2.89129 H 400 508.54817 l 5.42741,2.89129 c 21.21515,11.30175 24.99117,38.55997 7.47721,53.97637 -9.97278,8.77839 -2.19603,8.22673 -118.73909,8.42304 -57.01492,0.096 -105.79725,-0.25182 -108.40516,-0.77302 z"
     id="path3"
     transform="scale(0.03)" />
  <path
     style="fill:#b9006c;stroke-width:1.08548;fill-opacity:1"
     d="m 291.63889,264.94393 c -14.7294,-3.99644 -25.96543,-19.96376 -24.24865,-34.45929 1.35603,-11.44952 9.29868,-22.5051 19.47321,-27.10524 l 5.67386,-2.56529 h 106.91995 c 121.10731,0 112.60409,-0.6167 122.78348,8.90493 6.91598,6.46909 10.10365,13.92298 10.11806,23.65952 0.0191,12.912 -6.81934,23.6873 -18.7517,29.54705 l -6.14441,3.0174 -105.29173,0.21138 c -83.93441,0.1685 -106.35467,-0.077 -110.53207,-1.21046 z"
     id="path4"
     transform="scale(0.03)" />
</svg>
