<?xml version="1.0" encoding="UTF-8" standalone="no"?>
<svg
   id="svg"
   version="1.0"
   width="1280.000000pt"
   height="1280.000000pt"
   viewBox="0 0 1280.000000 1280.000000"
   preserveAspectRatio="xMidYMid meet"
   sodipodi:docname="papers.svg"
   inkscape:version="1.4.2 (ebf0e940, 2025-05-08)"
   xmlns:inkscape="http://www.inkscape.org/namespaces/inkscape"
   xmlns:sodipodi="http://sodipodi.sourceforge.net/DTD/sodipodi-0.dtd"
   xmlns="http://www.w3.org/2000/svg"
   xmlns:svg="http://www.w3.org/2000/svg">
  <defs
     id="defs9" />
  <sodipodi:namedview
     id="namedview9"
     pagecolor="#ffffff"
     bordercolor="#000000"
     borderopacity="0.25"
     inkscape:showpageshadow="2"
     inkscape:pageopacity="0.0"
     inkscape:pagecheckerboard="0"
     inkscape:deskcolor="#d1d1d1"
     inkscape:document-units="pt"
     inkscape:zoom="0.34471456"
     inkscape:cx="1454.8269"
     inkscape:cy="530.87402"
     inkscape:window-width="1920"
     inkscape:window-height="1027"
     inkscape:window-x="1440"
     inkscape:window-y="25"
     inkscape:window-maximized="1"
     inkscape:current-layer="svg" />
  <g
     transform="matrix(0.12473388,0,0,-0.12473388,-151.39127,1358.2832)"
     fill="#ff7f00"
     stroke="none"
     id="g9">
    <path
       d="M 3130,6490 V 2250 h 2145 2145 v 325 325 H 5600 3780 v 3590 3590 H 6400 9020 V 6490 2900 h -300 -300 v -325 -325 h 625 625 v 4240 4240 H 6400 3130 Z"
       id="path1" />
    <path
       d="m 4380,9270 v -190 h 2020 2020 v 190 190 H 6400 4380 Z"
       id="path2" />
    <path
       d="m 4380,8315 v -195 h 2020 2020 v 195 195 H 6400 4380 Z"
       id="path3" />
    <path
       d="m 4380,7355 v -195 h 2020 2020 v 195 195 H 6400 4380 Z"
       id="path4" />
    <path
       d="m 4380,6400 v -190 h 2020 2020 v 190 190 H 6400 4380 Z"
       id="path5" />
    <path
       d="m 4380,5445 v -195 h 2020 2020 v 195 195 H 6400 4380 Z"
       id="path6" />
    <path
       d="m 7903,4864 -92,-43 -88,19 c -48,11 -95,20 -103,20 -8,0 -43,-35 -77,-78 l -63,-78 -100,-23 c -92,-21 -101,-25 -106,-49 -8,-37 -24,-100 -35,-143 -7,-27 -27,-50 -87,-98 l -79,-64 21,-101 22,-101 -43,-93 -43,-92 65,-86 65,-85 v -100 -99 l 90,-45 90,-45 39,-78 40,-77 1,173 v 172 l -35,70 c -86,171 -87,376 -2,548 39,80 145,195 221,241 110,66 177,85 311,85 147,1 231,-23 342,-96 92,-62 154,-132 204,-233 90,-182 90,-358 -1,-542 l -40,-81 v -135 -135 l 43,10 c 23,6 46,14 50,18 5,4 15,34 23,66 8,32 20,76 25,96 7,28 27,51 88,101 l 78,65 -20,100 -21,100 39,88 c 22,48 41,90 43,94 1,4 -25,42 -59,84 -33,43 -63,86 -64,95 -2,9 -4,57 -4,106 l -1,90 -92,47 -93,46 -45,91 -44,91 h -101 -102 l -83,65 c -46,36 -84,65 -84,64 -1,0 -42,-20 -93,-45 z"
       id="path7" />
    <path
       d="m 4380,4485 v -195 h 1155 1155 v 195 195 H 5535 4380 Z"
       id="path8" />
    <path
       d="m 7800,4504 c -93,-25 -162,-64 -231,-133 -113,-112 -154,-222 -147,-385 5,-104 27,-178 68,-237 20,-26 20,-59 22,-1537 l 3,-1510 200,144 c 109,79 203,144 207,144 5,0 96,-63 202,-140 107,-77 197,-140 200,-140 3,0 6,673 6,1496 v 1496 l 41,83 c 76,153 77,302 3,454 -103,209 -352,324 -574,265 z"
       id="path9" />
  </g>
</svg>
