<?xml version="1.0" encoding="UTF-8" standalone="no"?>
<!-- Uploaded to: SVG Repo, www.svgrepo.com, Generator: SVG Repo Mixer Tools -->

<svg
   fill="#000000"
   height="800px"
   width="800px"
   version="1.1"
   id="Capa_1"
   viewBox="0 0 325 325"
   xml:space="preserve"
   sodipodi:docname="paper-with-text-svgrepo-com.svg"
   inkscape:version="1.3.2 (091e20ef0f, 2023-11-25)"
   xmlns:inkscape="http://www.inkscape.org/namespaces/inkscape"
   xmlns:sodipodi="http://sodipodi.sourceforge.net/DTD/sodipodi-0.dtd"
   xmlns="http://www.w3.org/2000/svg"
   xmlns:svg="http://www.w3.org/2000/svg"><defs
   id="defs5" /><sodipodi:namedview
   id="namedview5"
   pagecolor="#505050"
   bordercolor="#ffffff"
   borderopacity="1"
   inkscape:showpageshadow="0"
   inkscape:pageopacity="0"
   inkscape:pagecheckerboard="1"
   inkscape:deskcolor="#505050"
   inkscape:zoom="0.92125"
   inkscape:cx="399.45726"
   inkscape:cy="400"
   inkscape:window-width="1920"
   inkscape:window-height="935"
   inkscape:window-x="0"
   inkscape:window-y="32"
   inkscape:window-maximized="1"
   inkscape:current-layer="Capa_1" />
<g
   id="g5">
	<path
   d="M280.45,281.667c0.164-0.276,0.307-0.565,0.425-0.868c0.015-0.037,0.027-0.074,0.041-0.111   c0.113-0.307,0.205-0.623,0.268-0.951c0.006-0.031,0.009-0.063,0.014-0.094c0.059-0.336,0.095-0.678,0.095-1.029V6   c0-3.313-2.686-6-6-6H49.708c-3.313,0-6,2.687-6,6v313c0,3.314,2.687,6,6,6h189.486c0.213,0,0.422-0.012,0.629-0.033   c0.033-0.004,0.064-0.012,0.098-0.016c0.176-0.021,0.35-0.047,0.521-0.083c0.036-0.007,0.07-0.019,0.106-0.027   c0.165-0.038,0.329-0.08,0.488-0.132c0.047-0.015,0.092-0.034,0.137-0.05c0.146-0.052,0.291-0.105,0.432-0.167   c0.058-0.025,0.112-0.055,0.169-0.081c0.125-0.06,0.248-0.12,0.368-0.188c0.065-0.037,0.129-0.078,0.193-0.117   c0.105-0.065,0.211-0.133,0.313-0.204c0.068-0.048,0.134-0.099,0.2-0.149c0.094-0.072,0.186-0.147,0.274-0.224   c0.065-0.057,0.129-0.114,0.191-0.174c0.086-0.081,0.17-0.166,0.251-0.252c0.033-0.036,0.07-0.067,0.104-0.105l36.098-40.387   c0.015-0.017,0.024-0.036,0.039-0.053c0.211-0.241,0.402-0.5,0.573-0.773C280.402,281.746,280.427,281.707,280.45,281.667z    M55.708,12h213.584v260.613h-30.098c-3.313,0-6,2.686-6,6V313H55.708V12z M261.882,284.613l-16.688,18.67v-18.67H261.882z"
   id="path1" />
	<path
   d="M76.778,77.625h171.443c3.314,0,6-2.687,6-6s-2.686-6-6-6H76.778c-3.313,0-6,2.687-6,6S73.465,77.625,76.778,77.625z"
   id="path2" />
	<path
   d="M76.778,138.209h171.443c3.314,0,6-2.686,6-6s-2.686-6-6-6H76.778c-3.313,0-6,2.686-6,6S73.465,138.209,76.778,138.209z"
   id="path3" />
	<path
   d="M76.778,198.795h171.443c3.314,0,6-2.687,6-6c0-3.314-2.686-6-6-6H76.778c-3.313,0-6,2.686-6,6   C70.778,196.108,73.465,198.795,76.778,198.795z"
   id="path4" />
	<path
   d="M130.917,247.374H76.778c-3.313,0-6,2.687-6,6c0,3.314,2.687,6,6,6h54.139c3.313,0,6-2.686,6-6   C136.917,250.061,134.23,247.374,130.917,247.374z"
   id="path5" />
</g>
<path
   style="fill:#ffd5d5;stroke-width:1.08548"
   d="m 115.38513,797.33024 c -1.91132,-1.1654 -4.23153,-3.58165 -5.15604,-5.36945 -1.50839,-2.9169 -1.68092,-43.14742 -1.68092,-391.96079 0,-348.813375 0.17253,-389.043885 1.68092,-391.9607951 0.92451,-1.7877985 3.24472,-4.2040492 5.15604,-5.3694459 C 118.80817,0.58260852 123.07322,0.55085601 400,0.55085601 c 276.92678,0 281.19183,0.0317525 284.61487,2.11890299 7.45926,4.5481722 6.83771,-27.135592 6.82981,348.158291 -0.007,321.0828 -0.11002,339.69006 -1.89959,342.33034 -4.4736,6.60021 -91.9233,103.23419 -94.74141,104.69148 -2.71723,1.40513 -32.85628,1.60688 -239.52589,1.60333 -232.56713,-0.004 -236.47414,-0.0386 -239.89266,-2.12296 z M 574.22149,727.5441 c 0.002,-48.11924 0.0345,-48.37281 6.86057,-53.38282 2.94579,-2.16204 4.57708,-2.25999 42.60516,-2.55814 l 39.54209,-0.31003 V 350.02919 28.765265 H 400 136.77069 V 400 771.23474 h 218.72456 218.72456 z m 63.77037,-18.6061 c 3.73134,-4.16528 6.78426,-7.97189 6.78426,-8.45914 0,-0.48725 -9.28087,-0.88592 -20.62415,-0.88592 h -20.62415 v 23.93196 23.93195 l 13.83989,-15.47282 c 7.61194,-8.51004 16.89281,-18.88076 20.62415,-23.04603 z"
   id="path6"
   transform="scale(0.40625)" /><path
   style="fill:#ffd5d5;stroke-width:1.08548"
   d="m 181.48149,635.5217 c -3.68593,-2.24725 -6.71894,-7.73909 -6.71894,-12.16591 0,-4.03283 3.68344,-9.73886 7.66531,-11.87436 3.47154,-1.86181 7.9615,-1.98347 73.20308,-1.98347 65.24157,0 69.73153,0.12166 73.20308,1.98347 3.98186,2.1355 7.6653,7.84153 7.6653,11.87436 0,4.42682 -3.03301,9.91866 -6.71893,12.16591 -3.50662,2.13792 -5.29212,2.19067 -74.14945,2.19067 -68.85733,0 -70.64283,-0.0527 -74.14945,-2.19067 z"
   id="path7"
   transform="scale(0.40625)" /><path
   style="fill:#ffd5d5;stroke-width:1.08548"
   d="m 182.90366,486.98989 c -5.0014,-3.08934 -7.18585,-6.09493 -7.80959,-10.74526 -0.66555,-4.9621 1.44594,-9.79479 5.76333,-13.19085 l 2.88178,-2.26681 h 215.96827 215.96827 l 3.16902,2.25655 c 9.22143,6.56623 7.94503,19.00186 -2.50861,24.44089 -2.48844,1.29474 -35.19645,1.52447 -216.5536,1.52103 -206.07788,-0.004 -213.73743,-0.0751 -216.87887,-2.01555 z"
   id="path8"
   transform="scale(0.40625)" /><path
   style="fill:#ffd5d5;stroke-width:1.08548"
   d="m 179.79869,335.627 c -7.99373,-7.53905 -6.01935,-18.07023 4.39046,-23.41839 1.72907,-0.88832 60.15201,-1.21811 215.7934,-1.21811 181.17965,0 213.86523,0.2304 216.35358,1.52509 10.45364,5.43903 11.73004,17.87466 2.50861,24.4409 l -3.16902,2.25654 H 399.63835 183.60098 Z"
   id="path9"
   transform="scale(0.40625)" /><path
   style="fill:#ffd5d5;stroke-width:1.08548"
   d="m 182.42786,188.51857 c -3.98187,-2.1355 -7.66531,-7.84153 -7.66531,-11.87436 0,-4.42682 3.03301,-9.91866 6.71894,-12.16591 3.57197,-2.17777 4.85913,-2.19067 218.51851,-2.19067 213.65939,0 214.94654,0.0129 218.51851,2.19067 3.68593,2.24725 6.71894,7.73909 6.71894,12.16591 0,4.03283 -3.68344,9.73886 -7.6653,11.87436 -3.546,1.90174 -12.51067,1.98347 -217.57215,1.98347 -205.06148,0 -214.02615,-0.0817 -217.57214,-1.98347 z"
   id="path10"
   transform="scale(0.40625)" /></svg>
