 <svg version="1.0" xmlns="http://www.w3.org/2000/svg"
 width="1280.000000pt" height="686.000000pt" viewBox="0 0 1280.000000 686.000000"
 preserveAspectRatio="xMidYMid meet"><g transform="translate(0.000000,686.000000) scale(0.100000,-0.100000)"
fill="#000000" stroke="none">
<path d="M8870 6850 c-261 -4 -484 -12 -524 -19 -337 -56 -557 -184 -656 -381
-56 -112 -65 -155 -64 -295 0 -114 3 -138 26 -197 38 -101 85 -173 158 -241
73 -68 148 -107 310 -158 130 -41 399 -174 543 -268 270 -177 462 -385 576
-625 75 -156 119 -290 241 -725 91 -329 151 -455 269 -564 138 -127 329 -180
527 -144 111 20 180 56 269 139 101 94 140 146 291 389 199 319 287 426 387
464 93 35 219 -2 291 -87 116 -136 186 -471 141 -683 -45 -213 -211 -390 -465
-496 -175 -74 -472 -111 -736 -92 -133 10 -162 16 -269 53 -144 50 -298 121
-395 184 -155 101 -609 582 -933 988 -158 199 -220 284 -353 486 -147 223
-183 269 -368 482 -186 212 -456 478 -591 581 -452 345 -1012 593 -1545 683
-297 50 -789 70 -1145 46 -99 -6 -479 -15 -845 -20 -711 -8 -775 -12 -1180
-70 -1307 -186 -2016 -609 -2500 -1488 -184 -335 -266 -590 -305 -957 -23
-203 -32 -893 -16 -1070 43 -455 182 -839 444 -1227 152 -227 248 -278 571
-309 163 -15 525 -7 656 16 281 47 499 112 721 214 173 79 288 121 331 121 23
0 28 -4 28 -25 0 -66 -76 -164 -184 -238 -83 -56 -282 -149 -401 -187 -318
-101 -568 -126 -937 -95 -189 15 -211 16 -260 1 -163 -47 -233 -273 -122 -396
65 -72 148 -98 406 -130 125 -15 231 -20 425 -21 142 0 278 -4 302 -7 l45 -7
-43 -28 c-29 -19 -49 -43 -63 -74 -18 -41 -19 -52 -9 -98 17 -76 65 -127 165
-175 157 -76 347 -107 593 -97 296 13 458 65 785 253 191 110 363 196 449 224
62 21 94 25 194 25 185 0 266 -26 659 -210 356 -166 447 -190 674 -182 195 6
281 32 637 189 350 155 476 197 662 220 115 14 246 0 326 -36 28 -13 113 -59
187 -102 226 -134 316 -162 480 -151 120 8 206 39 460 168 292 148 380 170
511 129 70 -22 131 -64 265 -184 144 -128 229 -158 444 -158 284 0 579 91 763
237 69 55 108 106 155 204 28 59 35 85 36 138 1 61 -1 66 -33 95 -32 28 -38
30 -100 26 -58 -3 -83 -12 -202 -72 -143 -72 -204 -88 -249 -64 -25 14 -25 14
-25 163 -1 164 -10 203 -63 258 l-27 29 35 -6 c620 -106 801 -125 1008 -107
421 37 925 241 1252 505 580 470 899 1252 830 2031 -73 822 -560 1826 -1141
2352 -410 371 -951 657 -1499 793 -338 84 -480 93 -1280 80z"/>
</g>
</svg>
