 <svg version="1.0" xmlns="http://www.w3.org/2000/svg"
 width="802.000000pt" height="1280.000000pt" viewBox="0 0 802.000000 1280.000000"
 preserveAspectRatio="xMidYMid meet"><g transform="translate(0.000000,1280.000000) scale(0.100000,-0.100000)"
fill="#000000" stroke="none">
<path d="M4623 12786 c-58 -19 -95 -43 -280 -183 -205 -155 -265 -187 -353
-188 -80 0 -106 12 -248 116 -106 78 -196 123 -236 117 -13 -2 -28 -18 -41
-43 -16 -33 -20 -71 -25 -220 -8 -227 -21 -263 -114 -322 -64 -41 -144 -63
-286 -78 -74 -8 -148 -18 -165 -21 -29 -6 -117 -34 -123 -39 -1 -1 17 -58 40
-126 41 -118 42 -129 43 -244 0 -111 -2 -124 -27 -175 -43 -87 -142 -178 -345
-320 -64 -43 -69 -54 -63 -115 3 -29 54 -79 130 -127 351 -223 444 -315 415
-410 -4 -12 -36 -57 -70 -98 -857 -1040 -966 -2081 -303 -2898 34 -42 132
-149 218 -238 172 -178 223 -250 224 -319 1 -37 -4 -49 -34 -80 -37 -39 -171
-109 -280 -146 -91 -31 -209 -32 -267 -1 -118 62 -172 161 -257 476 -47 173
-79 263 -101 285 -11 12 -27 2 -102 -61 -107 -91 -155 -124 -253 -173 -341
-171 -712 -148 -1197 75 l-82 38 6 -31 c10 -56 54 -119 153 -222 248 -257 294
-325 295 -430 0 -99 -65 -193 -176 -258 -74 -43 -185 -75 -411 -121 -119 -25
-238 -54 -264 -65 -45 -20 -46 -22 -30 -40 30 -33 147 -88 231 -109 44 -12
150 -35 235 -52 247 -50 318 -98 307 -208 -10 -95 -77 -177 -192 -235 -27 -13
-131 -53 -230 -87 -192 -66 -245 -90 -315 -141 -44 -32 -44 -32 -20 -41 58
-21 188 -50 375 -82 237 -41 322 -66 360 -103 89 -89 73 -222 -58 -479 -31
-59 -55 -109 -54 -111 2 -1 36 3 77 8 86 12 197 40 405 103 373 112 537 136
627 90 44 -22 58 -52 58 -119 0 -66 -19 -129 -89 -299 -353 -855 -304 -1810
132 -2591 337 -604 907 -1114 1579 -1410 408 -180 637 -228 1093 -228 249 -1
378 11 585 53 567 115 1060 419 1377 847 211 285 359 639 409 975 24 161 15
422 -19 568 -111 472 -412 780 -867 887 -156 36 -392 43 -556 15 -428 -74
-778 -306 -915 -608 -66 -146 -91 -363 -49 -431 17 -28 25 -33 58 -33 66 0
138 65 301 274 241 308 544 411 826 282 237 -109 399 -394 397 -696 -3 -297
-113 -581 -304 -785 -136 -146 -315 -249 -528 -306 -107 -29 -353 -37 -476
-15 -264 46 -530 181 -710 360 -151 151 -319 397 -429 629 -426 900 -36 1812
1029 2407 203 113 322 166 696 310 695 267 1155 570 1442 950 91 121 192 316
238 460 61 188 89 437 70 630 -73 766 -536 1340 -1500 1860 -218 118 -525 304
-665 403 -166 118 -300 249 -343 336 -37 74 -42 149 -17 221 19 53 153 303
208 387 42 64 57 71 57 26 0 -80 126 -359 202 -447 81 -94 230 -170 417 -211
156 -35 286 -52 644 -85 623 -58 715 -81 982 -253 165 -106 288 -147 443 -147
157 0 283 51 388 156 93 93 115 184 67 277 -21 42 -106 130 -168 175 -69 50
-334 263 -425 341 -445 384 -734 743 -904 1128 -57 129 -99 254 -145 438 -45
176 -84 280 -149 388 -102 172 -235 311 -381 397 -105 62 -195 90 -325 100
-123 9 -141 14 -173 43 -34 30 -29 70 22 177 51 107 55 137 23 149 -32 11 -90
-2 -229 -54 -209 -77 -322 -100 -369 -75 -34 18 -36 85 -4 241 4 23 0 27 -34
37 -48 14 -56 14 -109 -2z"/>
</g>
</svg>
