 <svg version="1.0" xmlns="http://www.w3.org/2000/svg"
 width="800.000000pt" height="1280.000000pt" viewBox="0 0 800.000000 1280.000000"
 preserveAspectRatio="xMidYMid meet"><g transform="translate(0.000000,1280.000000) scale(0.100000,-0.100000)"
fill="#000000" stroke="none">
<path d="M4485 12794 c-16 -2 -73 -9 -125 -15 -127 -14 -276 -43 -440 -84
-238 -60 -395 -122 -498 -199 -91 -68 -227 -201 -247 -242 -9 -19 -26 -41 -39
-49 -36 -24 -132 -54 -286 -90 -324 -75 -679 -217 -1025 -410 -363 -203 -628
-406 -945 -724 -387 -389 -660 -787 -805 -1176 -64 -172 -69 -208 -70 -515 l0
-275 33 -95 c42 -120 161 -364 200 -410 30 -35 30 -35 51 -16 12 11 34 61 52
120 91 299 318 626 698 1007 166 166 257 241 475 394 39 27 138 105 220 174
166 138 202 164 219 158 17 -5 -70 -93 -154 -156 -89 -65 -128 -95 -368 -288
-191 -153 -304 -270 -505 -521 -215 -269 -365 -496 -467 -705 -69 -144 -104
-246 -95 -283 7 -25 10 -26 53 -21 107 12 313 150 355 239 9 18 22 46 29 62 8
15 54 78 103 140 284 355 488 522 1059 867 380 230 808 426 1034 473 73 16
390 42 398 34 3 -3 -6 -50 -19 -104 -26 -105 -51 -233 -86 -454 -44 -267 -78
-335 -275 -542 -68 -72 -134 -151 -146 -175 -12 -25 -32 -56 -44 -71 -27 -32
-45 -91 -45 -147 0 -66 -18 -112 -50 -132 -61 -38 -229 -263 -250 -334 -27
-88 -34 -105 -61 -148 -16 -24 -29 -55 -29 -68 0 -35 -35 -120 -153 -373 -176
-377 -172 -364 -172 -560 0 -143 4 -176 24 -248 13 -45 31 -93 41 -104 17 -22
18 -22 23 27 4 28 9 84 13 125 l7 75 49 -135 49 -135 14 -210 c22 -319 80
-527 200 -709 19 -28 37 -64 40 -81 18 -84 199 -469 276 -585 46 -70 79 -147
79 -183 -1 -43 -40 -108 -142 -234 -131 -162 -164 -195 -230 -227 -93 -45
-203 -67 -418 -86 -185 -16 -522 -59 -628 -80 -51 -10 -109 -29 -128 -41 -20
-12 -86 -69 -147 -127 -62 -58 -140 -127 -175 -155 -67 -53 -122 -133 -122
-179 0 -14 12 -41 27 -58 24 -29 25 -35 15 -64 -46 -125 24 -174 264 -183 88
-4 176 0 270 11 92 10 208 15 344 14 171 -1 226 2 333 20 150 26 244 28 274 7
16 -11 23 -30 28 -77 14 -137 69 -252 159 -335 l61 -57 5 180 c6 186 11 209
52 238 52 37 154 7 175 -50 44 -119 61 -151 93 -185 73 -77 93 -47 98 148 l4
143 32 4 c17 3 141 10 276 16 266 12 654 37 710 46 l35 6 29 -89 c34 -107 91
-233 105 -233 13 0 28 52 36 125 8 78 24 138 39 147 19 13 74 9 115 -8 35 -14
42 -22 55 -67 20 -70 111 -253 130 -264 14 -7 -1 -47 -100 -268 -350 -785
-613 -1425 -740 -1800 -131 -384 -164 -579 -113 -661 46 -74 179 -157 334
-207 295 -95 607 -139 1315 -187 91 -6 291 -24 445 -40 154 -16 339 -35 410
-41 176 -17 600 -18 690 -1 181 33 269 89 299 191 64 217 -71 692 -410 1441
-116 257 -489 1003 -707 1413 -159 299 -172 327 -151 327 13 0 123 -11 246
-25 297 -34 472 -70 813 -166 77 -22 191 -49 254 -60 151 -26 470 -42 580 -29
139 16 176 52 176 175 0 88 -22 129 -140 255 l-85 91 0 100 c0 91 -3 105 -30
159 -16 33 -30 71 -30 85 0 41 -37 134 -76 193 -25 38 -48 59 -78 73 -24 10
-155 42 -292 70 -137 28 -345 73 -462 100 -235 55 -334 74 -432 85 -90 9 -110
18 -110 48 0 14 9 67 20 118 152 708 190 924 234 1338 65 598 74 1359 21 1689
-23 139 -142 610 -165 648 -24 41 -25 89 -4 180 8 37 19 114 24 171 5 65 13
110 23 120 25 30 28 52 38 341 8 219 8 308 -1 379 -12 84 -11 96 5 126 17 30
17 34 0 65 -9 19 -21 75 -26 125 -12 131 -11 605 2 666 8 37 8 64 0 98 -6 26
-15 94 -20 152 -14 158 -82 365 -161 486 -11 16 -24 59 -29 96 -12 85 -39 136
-117 219 -44 47 -64 76 -64 94 0 31 -23 77 -90 181 -46 73 -69 125 -84 196 -3
15 -33 53 -67 85 -34 32 -67 72 -75 90 -16 38 -64 72 -212 152 -61 33 -139 78
-173 100 -34 22 -94 52 -133 67 -205 75 -223 84 -228 117 -3 24 -44 35 -135
36 -28 1 -64 6 -78 11 -23 9 -25 13 -15 25 7 8 29 15 49 15 46 0 81 10 81 22
0 5 -17 16 -37 25 -28 12 -76 17 -183 19 -80 1 -158 0 -175 -2z m-825 -1809
c13 -14 21 -25 18 -25 -2 0 -15 11 -28 25 -13 14 -21 25 -18 25 2 0 15 -11 28
-25z m85 -6354 c-12 -11 -75 -25 -75 -17 0 3 15 10 33 15 43 12 53 13 42 2z
m1041 -1153 c-60 -140 -100 -227 -103 -224 -5 5 33 196 46 229 8 21 17 27 41
27 l30 0 -14 -32z"/>
</g>
</svg>
