 <svg version="1.0" xmlns="http://www.w3.org/2000/svg"
 width="1280.000000pt" height="801.000000pt" viewBox="0 0 1280.000000 801.000000"
 preserveAspectRatio="xMidYMid meet"><g transform="translate(0.000000,801.000000) scale(0.100000,-0.100000)"
fill="#000000" stroke="none">
<path d="M2175 7998 c-203 -23 -430 -81 -630 -161 -626 -252 -1033 -759 -1154
-1435 -24 -130 -46 -417 -37 -478 5 -38 -4 -59 -109 -260 -63 -121 -115 -228
-115 -240 0 -12 -16 -55 -35 -96 -85 -186 -112 -361 -77 -508 55 -228 169
-418 365 -607 278 -268 705 -459 1180 -529 l118 -18 87 -89 c113 -116 271
-252 368 -317 99 -67 250 -140 406 -195 l123 -43 1 -93 c0 -68 5 -106 19 -138
11 -26 15 -46 9 -48 -99 -33 -368 -284 -516 -483 -122 -164 -189 -272 -278
-455 -169 -343 -262 -695 -277 -1042 -6 -140 -6 -143 21 -198 42 -84 124 -140
324 -221 538 -217 1219 -223 1759 -15 129 50 155 90 155 235 -1 95 0 99 14 74
8 -16 16 -28 17 -28 2 0 43 13 92 30 49 16 98 30 109 31 35 1 481 163 477 173
-1 6 52 36 118 67 l121 58 30 63 c48 103 51 132 24 237 -13 51 -36 116 -52
146 l-29 54 54 37 c29 20 55 35 57 33 2 -2 14 -24 26 -49 33 -64 57 -95 104
-128 58 -42 138 -56 211 -36 74 19 89 28 151 86 l52 49 21 -34 c33 -54 116
-126 177 -154 78 -35 172 -30 243 14 l48 30 42 -56 c78 -107 193 -175 296
-174 78 1 143 31 214 100 l54 52 20 -27 c39 -51 109 -110 166 -138 74 -38 173
-40 240 -5 61 32 145 113 193 188 l40 62 37 -47 c45 -57 100 -106 144 -128 76
-40 205 -9 304 72 l43 35 60 -64 c169 -181 382 -159 557 57 l32 39 52 -47 c83
-74 121 -90 214 -91 64 0 89 5 128 24 141 69 270 257 323 472 10 41 20 76 21
78 2 2 31 -23 65 -56 35 -33 82 -72 106 -88 23 -15 41 -29 39 -31 -1 -2 -30 3
-62 11 -33 7 -61 12 -62 11 -11 -11 -127 -269 -151 -336 -82 -228 -111 -368
-119 -565 -5 -123 -3 -161 11 -208 31 -106 93 -151 246 -180 174 -33 270 -42
483 -42 l218 0 10 -40 c48 -188 72 -201 344 -191 381 13 720 99 1071 270 279
137 519 310 725 523 147 152 185 234 159 344 -7 28 -31 79 -54 113 -77 114
-443 543 -518 605 -145 122 -322 231 -586 359 l-154 74 7 52 c4 28 8 52 9 53
1 2 47 -9 102 -23 83 -21 121 -25 239 -24 340 1 608 93 1102 376 198 114 296
179 375 253 82 75 78 87 -40 116 -50 13 -130 35 -176 49 -71 22 -103 26 -207
26 -206 0 -363 37 -564 130 -59 28 -123 57 -141 65 l-34 14 35 64 c50 91 68
158 68 257 0 86 -26 192 -57 235 -10 14 -12 41 -8 100 8 129 -31 234 -122 333
-98 107 -249 170 -481 201 -94 13 -134 5 -178 -36 -18 -17 -31 -23 -34 -17 -2
7 -39 65 -82 130 -447 684 -1322 1309 -2266 1618 -504 165 -959 239 -1470 239
-378 0 -699 -38 -1065 -125 -132 -31 -425 -116 -493 -143 -34 -14 -125 -49
-201 -80 -76 -31 -140 -54 -141 -53 -1 2 -9 25 -18 52 -42 124 -153 272 -277
369 -93 72 -302 213 -436 295 -64 39 -105 72 -113 88 -18 41 -133 212 -191
284 -271 340 -618 587 -1002 715 -280 92 -582 125 -863 93z m8282 -5064 c-3
-3 -17 -2 -32 2 l-27 7 29 23 28 22 3 -25 c2 -14 1 -27 -1 -29z m513 -468 c0
-9 -7 -12 -20 -9 -11 3 -17 9 -14 14 8 14 34 10 34 -5z m-5412 -298 c-5 -15
-23 -11 -26 6 -2 11 2 14 13 10 9 -4 14 -11 13 -16z m4856 -13 c18 -13 17 -14
-8 -21 -32 -8 -39 -3 -30 20 7 19 13 20 38 1z m-2549 -35 c-3 -5 -10 -10 -16
-10 -5 0 -9 5 -9 10 0 6 7 10 16 10 8 0 12 -4 9 -10z"/>
</g>
</svg>
