 <svg version="1.0" xmlns="http://www.w3.org/2000/svg"
 width="1126.000000pt" height="1280.000000pt" viewBox="0 0 1126.000000 1280.000000"
 preserveAspectRatio="xMidYMid meet"><g transform="translate(0.000000,1280.000000) scale(0.100000,-0.100000)"
fill="#000000" stroke="none">
<path d="M7890 12769 c-47 -17 -150 -53 -230 -80 -167 -58 -592 -263 -794
-385 l-130 -77 -15 24 c-99 151 -117 174 -143 177 -39 5 -45 -27 -15 -75 14
-22 41 -71 61 -110 l35 -71 -22 -15 c-20 -13 -25 -11 -82 33 -160 125 -227
155 -232 105 -2 -14 27 -46 102 -110 57 -49 104 -93 104 -97 1 -3 -32 -30 -71
-59 -127 -91 -279 -220 -402 -340 l-118 -116 -202 0 c-119 -1 -293 -10 -426
-22 -309 -28 -330 -30 -330 -27 0 2 34 27 76 56 71 49 134 117 134 145 0 7 -6
18 -14 24 -20 17 -64 -7 -146 -80 -192 -171 -186 -166 -253 -178 -35 -6 -67
-11 -71 -11 -11 0 29 54 102 140 36 41 71 89 78 107 18 42 18 83 0 83 -21 0
-62 -37 -88 -78 -16 -27 -168 -251 -183 -269 -1 -2 -34 -9 -73 -16 l-72 -14 0
37 c0 37 45 181 73 237 9 17 21 61 27 97 6 37 25 99 42 137 29 65 30 71 15 86
-15 15 -18 15 -38 -3 -35 -31 -71 -122 -76 -194 -3 -45 -14 -82 -33 -120 -33
-65 -65 -165 -75 -236 l-6 -51 -77 -11 c-56 -8 -79 -8 -84 1 -3 6 -30 81 -59
166 -58 173 -74 198 -98 153 -14 -26 8 -124 53 -239 20 -51 36 -94 36 -96 0
-3 -22 -7 -49 -11 l-49 -6 -104 103 c-113 114 -151 137 -226 137 -42 0 -51 -3
-55 -21 -10 -36 2 -47 97 -83 76 -30 101 -45 146 -91 50 -51 52 -55 30 -56
-14 0 -186 -2 -384 -4 l-359 -4 -51 39 c-70 53 -190 126 -318 194 -60 32 -108
61 -108 66 0 5 21 24 48 43 68 51 106 93 99 111 -12 31 -57 16 -151 -49 l-94
-65 -36 17 -36 17 21 35 c67 112 88 158 76 170 -20 20 -44 12 -78 -28 -27 -31
-99 -126 -104 -138 -1 -2 -37 12 -81 31 -245 103 -686 224 -1040 286 -144 25
-367 45 -499 45 -99 0 -102 -1 -143 -33 -54 -43 -87 -99 -109 -187 -29 -118
-22 -682 12 -860 3 -15 -13 -32 -67 -70 -72 -51 -148 -134 -148 -162 0 -25 60
-7 100 30 38 36 116 97 123 97 2 0 7 -21 10 -47 5 -46 4 -50 -38 -93 -52 -54
-62 -86 -25 -82 13 1 34 11 45 22 29 27 33 26 40 -17 22 -131 72 -363 111
-513 56 -218 64 -245 126 -401 l50 -127 -47 -43 c-26 -24 -60 -52 -77 -63 -32
-20 -35 -51 -7 -69 15 -9 64 16 155 79 21 14 23 12 52 -38 35 -63 91 -121 138
-143 42 -20 139 -38 176 -33 16 3 28 0 28 -6 0 -15 -57 -206 -63 -212 -4 -4
-126 63 -193 106 -26 16 -54 7 -54 -19 0 -24 44 -63 147 -130 l81 -52 -11 -35
c-6 -19 -14 -34 -18 -34 -9 0 -211 114 -259 146 -40 28 -85 31 -94 8 -13 -34
-4 -54 37 -87 47 -38 261 -183 279 -189 7 -3 9 -17 4 -41 -6 -32 -10 -36 -29
-32 -54 12 -333 56 -447 70 -150 18 -222 19 -238 3 -17 -17 -15 -46 6 -57 26
-14 240 -55 472 -91 113 -18 205 -33 206 -33 1 -1 -8 -58 -19 -127 -16 -101
-20 -180 -21 -407 l-1 -282 -25 -6 c-136 -27 -411 -62 -630 -80 -251 -20 -438
-44 -470 -59 -34 -15 -32 -38 5 -55 60 -30 215 -18 871 70 121 16 230 29 241
29 18 0 23 -9 33 -72 31 -191 83 -364 175 -583 25 -60 47 -114 48 -118 2 -9
-771 -402 -973 -495 -190 -87 -313 -184 -270 -213 20 -13 90 -3 180 28 71 24
719 363 986 515 69 39 126 69 127 67 134 -205 245 -331 370 -417 133 -91 362
-202 570 -277 l89 -32 -57 -61 c-57 -62 -67 -93 -32 -100 18 -4 119 73 145
109 15 22 35 23 76 6 l29 -13 -91 -106 c-50 -59 -96 -109 -102 -113 -17 -11
-11 -43 12 -59 12 -9 26 -16 30 -16 13 0 163 133 222 197 32 35 61 62 64 59 2
-3 -20 -32 -51 -65 -110 -119 -228 -289 -328 -471 -34 -63 -64 -117 -65 -118
-1 -2 -20 8 -41 22 -52 35 -73 34 -73 -4 0 -16 3 -30 8 -30 4 0 22 -14 39 -30
l33 -30 -16 -40 c-9 -22 -18 -40 -21 -40 -2 0 -36 20 -74 45 -77 50 -112 56
-130 24 -17 -33 8 -62 136 -154 l28 -21 -23 -84 c-16 -58 -25 -123 -28 -202
l-4 -118 -42 0 c-53 0 -238 -33 -332 -60 -190 -53 -416 -173 -596 -317 l-68
-54 -42 22 c-24 12 -55 30 -70 41 -22 15 -32 17 -49 8 -12 -7 -18 -17 -15 -27
3 -8 6 -16 6 -18 0 -1 25 -22 56 -45 l56 -42 -30 -31 -31 -30 -81 47 c-83 48
-115 54 -133 25 -15 -24 11 -59 86 -116 l63 -48 -28 -44 c-110 -175 -165 -510
-140 -855 19 -249 41 -321 169 -557 60 -110 244 -564 232 -572 -2 -1 -57 -20
-122 -41 -372 -123 -539 -368 -525 -772 5 -144 26 -203 95 -264 63 -55 117
-71 260 -77 l121 -6 6 -31 c11 -56 72 -170 115 -214 91 -93 253 -134 447 -113
180 19 324 86 492 229 35 30 65 52 66 50 1 -1 11 -25 21 -53 49 -135 126 -247
202 -295 25 -16 79 -37 119 -46 68 -15 80 -15 152 0 43 9 104 25 135 35 l57
20 0 -60 c0 -98 46 -156 141 -179 67 -16 231 -7 358 20 52 11 97 20 102 20 4
0 11 -15 15 -33 12 -57 53 -131 96 -175 80 -83 192 -119 334 -108 189 16 452
92 584 169 122 71 273 251 356 423 43 91 109 291 125 380 7 38 15 72 19 77 3
4 17 -30 30 -75 94 -332 245 -567 413 -647 158 -75 429 -81 564 -13 89 46 168
160 194 280 7 31 14 59 15 61 2 2 25 -14 51 -36 118 -99 228 -145 346 -144 81
0 160 32 244 99 48 39 128 126 163 180 l15 23 69 -32 c79 -37 188 -50 249 -30
53 18 112 83 154 170 20 42 38 77 39 79 1 1 37 -34 80 -79 114 -117 226 -203
333 -257 88 -44 99 -47 170 -47 125 1 198 58 276 219 l47 96 89 0 c180 0 320
49 403 141 54 60 67 107 67 243 1 160 -49 339 -125 451 -105 156 -313 300
-571 396 -49 18 -92 34 -94 36 -2 1 45 55 105 120 378 407 585 714 680 1007
76 234 48 430 -90 621 -20 27 -36 53 -36 57 0 4 32 31 70 59 85 61 98 81 75
115 -20 32 -41 30 -95 -7 -25 -16 -66 -41 -93 -55 l-47 -25 -30 28 -30 28 68
51 c48 36 68 58 70 76 4 33 -27 42 -59 16 -13 -10 -53 -32 -88 -48 l-63 -30
-97 65 c-91 61 -274 155 -300 155 -13 0 5 26 64 91 l35 39 35 -38 c19 -20 47
-58 62 -84 30 -54 61 -63 87 -27 19 28 9 49 -74 147 l-61 73 26 45 c26 45 27
45 48 27 35 -30 55 -55 86 -110 17 -28 34 -54 39 -57 14 -8 70 13 76 29 7 18
-58 122 -122 194 l-52 60 35 79 c19 44 76 203 126 353 50 151 114 330 141 399
28 69 86 224 129 345 108 299 171 427 252 508 103 104 210 142 392 140 164 -1
321 -50 414 -128 44 -38 144 -193 241 -375 111 -208 141 -252 229 -340 110
-109 250 -196 379 -233 49 -15 56 -15 108 4 152 51 284 160 323 264 33 87 36
155 13 265 -55 268 -241 563 -606 960 l-59 64 44 39 c24 21 74 54 112 73 54
28 67 39 67 58 0 13 -7 29 -15 36 -27 22 -118 -23 -230 -114 l-36 -29 -38 37
-39 38 37 33 c37 33 131 87 169 97 16 5 22 14 22 35 0 82 -75 69 -213 -35 -35
-27 -69 -52 -75 -56 -6 -4 -53 26 -104 67 -184 146 -335 228 -500 272 -112 30
-318 55 -449 55 -56 0 -113 6 -135 14 -22 7 -147 39 -279 70 -215 51 -534 134
-544 142 -2 2 13 61 33 131 20 71 56 216 80 323 l43 195 184 12 c340 23 664
53 703 65 46 14 101 62 90 79 -10 17 -227 6 -504 -26 -124 -14 -277 -28 -341
-32 l-115 -6 14 89 c10 58 15 165 16 309 0 204 -2 229 -27 349 -15 71 -24 132
-20 136 9 8 337 157 563 257 151 66 155 69 158 101 3 30 1 32 -28 32 -44 0
-179 -53 -470 -184 l-255 -115 -11 32 c-28 80 -30 74 28 81 92 12 99 16 96 45
-3 26 -3 26 -90 25 l-86 -1 -20 53 -19 53 51 15 c28 8 65 18 81 21 79 17 125
37 125 54 0 43 -51 52 -162 27 -133 -30 -134 -30 -147 3 -11 26 -9 35 17 82
110 198 153 601 122 1145 -22 379 -56 636 -126 949 -20 88 -37 168 -37 178 -2
15 20 27 110 61 99 37 142 63 143 89 1 25 -171 -5 -271 -47 -12 -5 -20 3 -32
36 -10 24 -17 47 -17 51 0 11 102 54 196 83 58 17 89 33 104 51 26 34 18 43
-38 43 -66 0 -165 -25 -244 -61 l-66 -31 -38 42 c-43 47 -108 80 -157 80 -18
0 -70 -14 -117 -31z m729 -5034 c140 -41 256 -76 258 -78 1 -2 -25 -11 -59
-21 -141 -39 -267 -125 -339 -232 -68 -100 -131 -261 -205 -524 -31 -107 -75
-257 -100 -333 -27 -85 -61 -230 -89 -380 -25 -133 -59 -279 -75 -324 -48
-139 -173 -331 -298 -460 -73 -75 -282 -193 -294 -165 -18 45 -9 61 60 106
106 69 146 108 138 134 -9 28 -31 28 -70 -2 -17 -13 -59 -37 -93 -55 l-62 -31
-11 43 c-40 163 -122 354 -192 447 -93 122 -207 222 -370 325 l-78 48 123 47
c359 136 549 248 752 442 l102 97 86 -70 c82 -66 137 -89 137 -56 0 18 -63 96
-120 147 l-49 45 34 40 34 39 39 -29 c22 -17 70 -56 108 -88 70 -59 101 -74
130 -63 14 5 13 9 -3 37 -26 46 -138 165 -178 189 -19 12 -35 25 -35 28 0 4
45 70 100 147 125 176 228 374 321 613 6 16 15 22 27 18 9 -3 131 -39 271 -81z"/>
</g>
</svg>
