 <svg version="1.0" xmlns="http://www.w3.org/2000/svg"
 width="1280.000000pt" height="960.000000pt" viewBox="0 0 1280.000000 960.000000"
 preserveAspectRatio="xMidYMid meet"><g transform="translate(0.000000,960.000000) scale(0.100000,-0.100000)"
fill="#000000" stroke="none">
<path d="M5183 9560 c-24 -21 -43 -42 -43 -48 0 -5 61 -96 135 -202 153 -218
228 -340 286 -465 38 -82 69 -198 56 -211 -3 -3 -43 27 -89 68 -290 256 -815
671 -967 762 -38 23 -92 42 -169 60 -62 14 -117 26 -123 26 -7 0 58 -67 144
-150 163 -158 330 -350 436 -503 60 -88 156 -266 147 -275 -3 -2 -46 33 -98
78 -291 257 -603 457 -1105 709 l-102 51 -35 -44 c-20 -24 -36 -47 -36 -52 0
-12 136 -145 343 -335 255 -233 266 -243 233 -224 -283 169 -519 265 -871 355
-88 23 -167 43 -177 46 -12 4 -21 -9 -38 -52 -11 -31 -17 -60 -13 -65 4 -4 69
-40 143 -81 180 -100 334 -194 453 -280 110 -78 281 -238 312 -290 l19 -33
-21 15 c-378 267 -660 408 -968 481 -77 18 -445 70 -453 64 -1 -1 44 -38 100
-82 100 -78 146 -106 408 -248 272 -148 410 -268 459 -398 l11 -29 -27 21
c-228 176 -511 293 -838 347 -122 20 -360 24 -432 7 -29 -7 -76 -18 -104 -24
l-51 -11 88 -54 c100 -61 137 -76 424 -168 233 -76 318 -113 408 -180 70 -52
76 -69 15 -38 -66 34 -206 79 -324 105 -127 28 -285 51 -313 46 -13 -3 -25
-22 -36 -57 -17 -53 -17 -53 4 -67 11 -7 31 -16 44 -20 49 -14 12 -14 -83 2
-74 12 -166 17 -350 17 -218 1 -262 -2 -345 -20 -240 -53 -416 -167 -497 -319
-31 -60 -107 -265 -97 -265 2 0 46 27 95 61 169 113 288 159 467 180 162 19
373 -15 577 -93 l89 -35 -139 -6 c-357 -15 -659 -137 -890 -358 -205 -197
-295 -380 -318 -650 -7 -76 -10 -139 -7 -139 4 0 51 52 105 116 239 280 497
462 744 523 120 30 134 27 75 -11 -78 -51 -205 -186 -277 -294 -152 -229 -277
-569 -303 -825 l-6 -66 61 -15 61 -16 32 65 c18 36 67 110 110 166 78 104 226
258 214 222 -63 -177 -90 -348 -82 -522 9 -193 7 -191 97 -75 42 53 119 158
171 232 88 124 206 266 214 257 2 -2 -14 -37 -35 -78 -47 -89 -94 -205 -128
-314 -43 -139 -42 -325 2 -325 7 0 33 9 57 20 45 19 46 21 52 77 4 32 13 72
20 88 l13 30 8 -40 c4 -22 23 -93 42 -158 18 -65 30 -123 26 -130 -24 -40
-239 -294 -300 -354 -170 -169 -358 -259 -583 -279 l-75 -6 -18 91 c-61 321
-325 537 -636 519 -252 -15 -466 -184 -548 -432 -23 -70 -27 -98 -27 -206 0
-111 3 -134 28 -205 87 -251 288 -410 549 -434 l69 -6 37 -105 c100 -280 239
-536 419 -770 98 -127 349 -373 484 -473 445 -333 961 -545 1614 -662 325 -59
776 -91 1099 -80 105 4 195 6 200 4 10 -4 9 -117 -4 -277 l-6 -83 -275 -145
c-383 -203 -423 -231 -506 -355 -85 -129 -133 -314 -120 -466 16 -200 109
-388 220 -445 54 -29 219 -37 283 -15 37 12 49 13 80 1 21 -7 52 -13 70 -14
26 0 36 -7 55 -38 55 -92 108 -128 229 -155 36 -8 61 -7 116 7 64 15 73 15
108 1 64 -27 161 -30 228 -7 53 18 62 18 100 5 69 -24 129 -27 190 -9 52 15
62 15 116 1 76 -19 163 -19 231 1 50 15 60 15 135 -2 112 -26 304 -26 404 0
61 16 85 28 135 71 192 162 281 367 351 810 14 88 28 175 31 193 4 26 8 31 18
23 9 -8 24 1 56 34 l43 44 -38 72 -37 71 12 74 c7 41 16 74 20 74 5 0 20 -20
34 -44 65 -111 213 -231 389 -315 98 -47 287 -131 287 -127 0 11 -141 264
-199 355 -64 103 -79 131 -67 131 2 0 22 -25 45 -55 138 -183 244 -289 381
-380 75 -49 353 -188 347 -172 -3 7 -40 66 -83 132 -132 204 -168 316 -129
398 l17 37 92 -87 c51 -49 152 -131 225 -183 73 -52 178 -129 233 -170 55 -41
106 -79 113 -84 14 -11 104 50 105 70 0 6 -22 43 -50 83 -27 40 -50 75 -50 77
0 3 19 -8 43 -24 23 -16 96 -62 162 -102 66 -40 137 -86 157 -102 l38 -30 45
39 c24 21 44 43 45 50 0 6 -16 32 -35 57 -19 26 -35 48 -35 51 0 3 19 -7 42
-21 23 -15 66 -37 94 -50 l51 -22 6 -84 c10 -142 79 -314 155 -389 31 -31 134
-68 209 -76 l52 -6 31 -66 c17 -36 49 -88 70 -116 34 -45 48 -54 112 -75 79
-26 190 -32 240 -12 22 9 36 7 74 -9 61 -28 161 -29 232 -4 50 18 54 18 101 1
77 -27 152 -31 225 -12 60 16 67 17 112 1 75 -25 132 -28 194 -10 30 9 87 20
126 24 178 19 257 119 291 371 23 172 9 458 -42 850 -9 63 -18 125 -20 138 -5
18 -1 22 20 22 25 0 290 99 283 106 -2 2 -51 10 -109 18 -57 9 -130 21 -161
27 -56 11 -57 12 -63 53 -3 22 -8 54 -11 69 -6 28 -6 28 33 20 69 -14 186 -5
323 25 74 17 158 33 187 37 56 7 59 11 68 82 l7 48 -139 58 c-76 32 -144 61
-150 65 -6 4 32 7 85 7 114 1 150 11 335 98 91 42 166 69 258 91 71 17 129 34
129 37 0 3 -15 10 -32 16 -18 6 -85 30 -149 52 -76 27 -160 48 -248 61 -73 11
-150 28 -170 36 -32 14 -34 17 -16 24 11 5 31 9 44 9 47 2 259 53 375 92 141
46 286 116 339 161 l37 33 -30 45 c-16 25 -31 48 -32 51 -2 4 -34 0 -73 -8
-142 -30 -292 5 -350 81 -15 20 -26 39 -23 42 3 2 79 18 169 35 245 45 393 87
546 154 58 26 59 30 42 102 l-12 45 -116 -4 c-64 -3 -159 -1 -211 4 -88 8
-221 45 -242 66 -6 6 12 16 44 27 76 24 152 73 287 184 64 53 132 107 150 121
l32 25 -22 58 c-19 49 -25 58 -43 53 -158 -36 -264 -33 -332 12 -79 52 -110
83 -93 92 110 62 382 290 470 393 60 72 119 161 119 184 0 13 -81 63 -103 63
-8 0 -22 -8 -31 -19 -26 -29 -124 -69 -196 -80 -48 -8 -81 -7 -127 2 -55 12
-133 52 -133 68 0 4 46 47 103 95 125 108 278 261 415 417 l104 117 -37 45
c-21 25 -42 45 -47 45 -6 0 -54 -25 -108 -55 -121 -68 -168 -85 -232 -85 -46
0 -128 32 -128 50 0 3 47 43 105 89 176 139 297 284 345 413 19 49 83 378 76
386 -2 1 -41 -39 -86 -90 -95 -105 -116 -124 -181 -162 -38 -22 -198 -86 -214
-86 -3 0 20 37 49 83 62 96 104 176 146 283 28 68 60 193 60 229 0 12 -76 35
-113 35 -7 0 -29 -29 -50 -65 -72 -124 -190 -230 -285 -255 -55 -14 -68 -6
-45 28 48 73 157 277 197 368 43 97 120 314 114 319 -29 22 -110 56 -116 49
-5 -5 -32 -39 -61 -76 -50 -64 -180 -192 -188 -185 -2 2 14 42 36 88 21 46 49
118 60 160 24 88 73 368 66 380 -8 12 -103 41 -114 35 -5 -3 -34 -50 -64 -104
-67 -118 -122 -189 -175 -226 -44 -30 -142 -70 -142 -58 0 4 27 80 61 167 129
341 159 444 159 545 0 76 -16 113 -44 104 -89 -28 -89 -28 -101 -80 -25 -110
-106 -225 -218 -309 -63 -48 -161 -94 -174 -82 -8 9 24 145 73 306 65 214 85
347 68 454 l-7 37 -61 0 -61 0 -23 -72 c-13 -40 -40 -102 -61 -138 -37 -62
-149 -195 -157 -187 -3 2 7 55 20 118 37 172 50 331 37 453 -17 158 -19 160
-74 164 -63 4 -83 -9 -91 -59 -16 -101 -100 -214 -255 -343 -44 -37 -81 -66
-84 -66 -2 0 -7 41 -11 91 -22 291 -136 591 -303 796 l-34 43 -49 -33 c-27
-17 -50 -36 -50 -42 0 -5 9 -33 20 -62 36 -95 60 -243 60 -372 0 -114 -13
-215 -29 -225 -4 -3 -31 86 -60 197 -68 257 -118 411 -172 526 -46 100 -37 95
-119 66 -40 -14 -37 14 -24 -251 5 -106 3 -175 -6 -233 -7 -45 -15 -80 -17
-77 -2 2 -28 75 -58 163 -105 311 -186 470 -330 648 -55 68 -101 122 -103 120
-5 -5 38 -243 71 -385 38 -170 43 -326 12 -404 -11 -26 -24 -49 -30 -50 -5 0
-50 121 -100 269 -101 302 -136 383 -191 444 -60 67 -66 68 -106 11 l-35 -50
19 -39 c64 -131 37 -388 -57 -530 -15 -23 -31 -41 -35 -41 -12 0 -65 145 -120
325 -70 234 -113 342 -171 430 l-49 76 -43 -26 c-23 -14 -48 -29 -55 -34 -11
-6 -11 -17 3 -62 24 -75 31 -295 15 -410 -7 -50 -16 -86 -20 -82 -4 4 -21 44
-39 88 -44 107 -129 268 -192 363 -62 92 -149 202 -161 202 -4 0 -30 -14 -57
-30 l-50 -31 25 -72 c40 -118 57 -222 51 -312 -4 -78 -42 -225 -57 -225 -4 0
-70 95 -146 212 -156 238 -253 375 -322 455 -47 55 -124 113 -149 113 -7 0
-24 -22 -38 -49 l-24 -49 43 -64 c95 -143 158 -350 160 -525 1 -149 -8 -158
-68 -65 -25 38 -91 155 -147 258 -115 213 -186 325 -257 404 l-49 55 -47 -38
c-25 -21 -46 -42 -46 -46 0 -4 12 -36 26 -72 56 -135 86 -261 109 -459 4 -41
12 -49 -89 95 -35 50 -94 126 -130 170 -82 98 -345 365 -360 365 -6 0 -31 -18
-55 -39 l-44 -38 78 -133 c149 -255 199 -384 193 -501 l-3 -61 -210 253 c-301
363 -480 539 -548 539 -8 0 -24 -23 -36 -52 l-21 -52 29 -30 c128 -136 263
-413 291 -599 21 -139 24 -141 -292 190 -293 306 -560 572 -613 609 l-30 22
-42 -38z m3904 -8316 c10 -28 -3 -24 -26 7 -23 30 -23 31 -1 19 11 -6 24 -18
27 -26z"/>
</g>
</svg>
