 <svg version="1.0" xmlns="http://www.w3.org/2000/svg"
 width="1161.000000pt" height="1280.000000pt" viewBox="0 0 1161.000000 1280.000000"
 preserveAspectRatio="xMidYMid meet"><g transform="translate(0.000000,1280.000000) scale(0.100000,-0.100000)"
fill="#000000" stroke="none">
<path d="M8505 12790 c-33 -6 -118 -23 -190 -39 -71 -17 -196 -44 -277 -60
-199 -41 -301 -67 -339 -86 -85 -45 -179 -169 -245 -327 -20 -45 -36 -84 -38
-85 -1 -1 -54 8 -117 22 -741 156 -1551 54 -2220 -280 -298 -149 -513 -302
-753 -535 -251 -245 -459 -545 -567 -818 -9 -24 -9 -24 -55 17 -135 119 -325
212 -524 256 -115 25 -315 30 -435 11 -500 -82 -885 -453 -992 -956 -24 -117
-24 -343 0 -460 107 -503 493 -874 996 -956 115 -19 316 -14 431 11 198 44
396 141 530 262 28 25 52 44 54 42 1 -2 28 -56 59 -119 227 -465 634 -877
1141 -1158 63 -35 104 -63 95 -66 -7 -3 -75 -12 -149 -21 -573 -70 -1218 -288
-1695 -575 -55 -33 -103 -60 -106 -60 -3 0 -9 51 -12 113 -29 511 -280 1001
-677 1317 -251 200 -506 311 -807 351 -140 18 -414 6 -543 -24 -572 -136 -975
-558 -1056 -1107 -79 -545 200 -1045 666 -1192 66 -20 94 -23 230 -22 140 0
162 3 235 27 200 67 350 208 417 393 26 71 35 225 19 305 -25 120 -111 240
-205 287 -98 50 -228 48 -334 -4 -105 -51 -123 -142 -44 -226 33 -35 72 -44
112 -23 21 11 42 14 68 9 95 -17 127 -61 119 -160 -11 -146 -116 -234 -277
-234 -88 0 -150 21 -236 79 -176 120 -274 331 -262 565 20 379 322 670 738
711 134 14 347 -28 475 -92 177 -89 344 -255 449 -445 79 -142 131 -333 142
-513 5 -87 -2 -155 -54 -526 l-59 -425 -61 -91 c-336 -499 -583 -1183 -716
-1978 -125 -749 -149 -1693 -62 -2430 7 -60 10 -114 6 -120 -17 -24 -69 -177
-89 -260 -31 -136 -61 -390 -68 -575 -9 -258 26 -407 107 -455 66 -38 199 -18
233 35 16 26 21 25 35 -5 37 -80 253 -78 326 3 l18 21 29 -21 c40 -30 174 -38
212 -14 58 39 94 199 84 374 -5 85 -4 93 11 87 9 -4 36 -10 60 -12 40 -5 45
-3 81 34 45 48 67 118 82 257 12 108 3 179 -36 265 -23 54 -23 55 -2 27 71
-93 153 -190 216 -258 l72 -77 -48 -27 c-213 -122 -333 -298 -336 -493 l-2
-84 30 -8 c204 -56 602 -116 935 -140 194 -14 628 -6 804 16 264 32 541 98
719 170 21 9 21 29 2 117 -31 147 -141 298 -288 394 -40 26 -73 48 -75 49 -1
1 22 40 51 87 l53 85 130 -126 c248 -242 491 -415 779 -557 907 -445 1916
-321 2748 339 56 44 170 147 253 229 l150 148 21 -43 c12 -23 33 -61 47 -84
l26 -41 -76 -41 c-153 -83 -255 -183 -316 -308 -35 -74 -58 -154 -58 -205 l0
-36 82 -31 c115 -44 279 -86 448 -115 265 -45 348 -51 705 -50 366 0 557 15
873 70 166 28 385 73 392 81 3 3 4 36 4 74 -4 179 -122 369 -295 477 l-35 21
120 123 c212 217 369 443 516 743 214 437 322 861 337 1320 7 216 -5 367 -42
553 -68 336 -188 578 -384 773 -191 190 -388 272 -656 272 -195 0 -361 -43
-554 -144 -52 -27 -95 -49 -96 -49 -1 0 -5 37 -9 83 -35 419 -119 818 -259
1224 -23 67 -40 123 -37 125 460 328 964 825 1474 1455 166 205 244 313 326
450 208 348 323 672 382 1078 20 135 16 521 -6 665 -102 670 -401 1271 -952
1915 -153 179 -838 867 -979 984 -235 195 -480 368 -588 416 -30 13 -93 31
-138 40 -100 20 -340 28 -424 15z m-6 -465 c-3 -2 -120 -24 -261 -48 -290 -51
-323 -63 -375 -139 -17 -26 -33 -53 -35 -59 -3 -8 -13 -10 -29 -6 -49 13 -51
19 -29 82 11 32 20 66 20 76 0 39 67 71 187 88 60 9 530 15 522 6z m471 -325
c35 -6 38 -8 15 -9 -109 -4 -324 -24 -396 -36 -122 -21 -180 -41 -239 -80
l-51 -35 -60 30 c-61 31 -66 38 -48 71 19 37 106 57 294 69 128 9 410 3 485
-10z m-87 -360 c32 -12 115 -60 185 -107 70 -48 155 -99 188 -114 65 -30 236
-69 301 -69 102 0 106 -3 164 -114 29 -55 90 -166 136 -245 46 -79 83 -145 83
-147 0 -1 -32 -12 -70 -23 -98 -30 -250 -110 -345 -181 -44 -33 -82 -60 -85
-59 -3 0 -35 62 -72 137 -72 148 -186 327 -295 462 -83 104 -273 295 -371 374
-81 66 -82 74 -6 102 48 18 111 12 187 -16z m804 -3023 c262 -137 545 -171
846 -101 37 9 70 14 72 12 3 -2 -4 -31 -16 -64 -131 -383 -660 -961 -1064
-1161 -99 -50 -160 -70 -249 -82 -91 -13 -145 -2 -270 55 -304 139 -482 208
-654 254 l-83 22 78 47 c267 161 543 402 737 642 118 147 275 398 321 516 l17
42 88 -68 c49 -37 129 -88 177 -114z m-5850 -2628 c35 -6 63 -15 63 -19 0 -4
-14 -41 -31 -81 -170 -396 -307 -951 -345 -1386 -3 -46 -9 -83 -12 -83 -2 0
-44 16 -93 35 -182 73 -416 100 -582 66 -37 -7 -69 -12 -71 -10 -9 9 74 485
149 860 l44 224 68 63 c278 260 559 375 810 331z m-1628 -4446 c37 -76 91
-176 120 -223 l53 -85 -89 86 c-48 47 -98 91 -110 98 -18 9 -23 21 -24 54 0
23 -6 81 -13 129 -6 48 -10 86 -8 84 2 -2 34 -66 71 -143z"/>
</g>
</svg>
