 <svg version="1.0" xmlns="http://www.w3.org/2000/svg"
 width="992.000000pt" height="1280.000000pt" viewBox="0 0 992.000000 1280.000000"
 preserveAspectRatio="xMidYMid meet"><g transform="translate(0.000000,1280.000000) scale(0.100000,-0.100000)"
fill="#000000" stroke="none">
<path d="M7685 12785 c-319 -57 -563 -189 -815 -444 -195 -196 -332 -420 -417
-682 l-38 -115 -110 28 c-218 55 -464 97 -765 130 -152 16 -717 17 -880 0
-293 -30 -551 -74 -797 -138 -73 -19 -135 -34 -138 -34 -3 0 -5 10 -5 23 0 12
-18 74 -39 137 -290 860 -1122 1316 -1798 984 -563 -275 -807 -1025 -568
-1742 73 -217 208 -454 345 -604 l61 -68 -84 -112 c-267 -356 -445 -743 -526
-1143 -41 -204 -46 -266 -46 -535 0 -269 5 -331 46 -535 105 -519 380 -1027
780 -1440 74 -76 108 -118 103 -127 -4 -7 -33 -44 -64 -83 -232 -285 -513
-705 -915 -1365 -271 -444 -361 -637 -439 -940 l-24 -94 -87 -13 c-401 -58
-596 -508 -362 -835 65 -91 163 -162 279 -201 39 -14 47 -45 36 -162 -27 -308
37 -702 167 -1025 274 -682 833 -1166 1455 -1260 109 -16 315 -14 428 6 262
44 507 168 707 357 l89 83 135 -33 c574 -141 1250 -233 1716 -233 307 0 803
42 1192 100 189 29 172 33 238 -60 179 -256 423 -443 696 -534 171 -58 252
-70 444 -70 246 1 410 39 643 149 391 186 712 514 926 945 85 172 136 307 181
486 32 128 35 134 101 220 144 189 224 441 224 707 0 76 1 80 39 125 127 153
155 363 73 552 -30 70 -105 162 -170 209 -58 43 -59 45 -77 120 -47 200 -335
1219 -390 1379 -163 477 -488 1034 -858 1470 l-88 102 107 123 c196 225 336
434 459 682 454 921 360 1955 -255 2815 -45 63 -102 138 -126 167 -24 28 -44
54 -44 58 0 4 30 39 67 79 224 240 378 544 445 878 32 160 32 445 0 595 -100
464 -396 793 -810 899 -123 32 -326 41 -447 19z"/>
</g>
</svg>
