<?xml version="1.0" encoding="UTF-8" standalone="no"?>
<!-- Uploaded to: SVG Repo, www.svgrepo.com, Generator: SVG Repo Mixer Tools -->

<svg
   fill="#000000"
   height="800px"
   width="800px"
   version="1.1"
   id="Capa_1"
   viewBox="0 0 325 325"
   xml:space="preserve"
   sodipodi:docname="paper-with-text-svgrepo-com.svg"
   inkscape:version="1.4.2 (ebf0e940, 2025-05-08)"
   xmlns:inkscape="http://www.inkscape.org/namespaces/inkscape"
   xmlns:sodipodi="http://sodipodi.sourceforge.net/DTD/sodipodi-0.dtd"
   xmlns="http://www.w3.org/2000/svg"
   xmlns:svg="http://www.w3.org/2000/svg"><defs
   id="defs5" /><sodipodi:namedview
   id="namedview5"
   pagecolor="#505050"
   bordercolor="#ffffff"
   borderopacity="1"
   inkscape:showpageshadow="0"
   inkscape:pageopacity="0"
   inkscape:pagecheckerboard="1"
   inkscape:deskcolor="#505050"
   inkscape:zoom="0.92125"
   inkscape:cx="400"
   inkscape:cy="399.45726"
   inkscape:window-width="1920"
   inkscape:window-height="1027"
   inkscape:window-x="1440"
   inkscape:window-y="25"
   inkscape:window-maximized="1"
   inkscape:current-layer="Capa_1" />
<g
   id="g5"
   transform="matrix(0.90533989,0,0,0.90533989,18.689644,16.653276)">
	<path
   d="m 280.45,281.667 c 0.164,-0.276 0.307,-0.565 0.425,-0.868 0.015,-0.037 0.027,-0.074 0.041,-0.111 0.113,-0.307 0.205,-0.623 0.268,-0.951 0.006,-0.031 0.009,-0.063 0.014,-0.094 0.059,-0.336 0.095,-0.678 0.095,-1.029 V 6 c 0,-3.313 -2.686,-6 -6,-6 H 49.708 c -3.313,0 -6,2.687 -6,6 v 313 c 0,3.314 2.687,6 6,6 h 189.486 c 0.213,0 0.422,-0.012 0.629,-0.033 0.033,-0.004 0.064,-0.012 0.098,-0.016 0.176,-0.021 0.35,-0.047 0.521,-0.083 0.036,-0.007 0.07,-0.019 0.106,-0.027 0.165,-0.038 0.329,-0.08 0.488,-0.132 0.047,-0.015 0.092,-0.034 0.137,-0.05 0.146,-0.052 0.291,-0.105 0.432,-0.167 0.058,-0.025 0.112,-0.055 0.169,-0.081 0.125,-0.06 0.248,-0.12 0.368,-0.188 0.065,-0.037 0.129,-0.078 0.193,-0.117 0.105,-0.065 0.211,-0.133 0.313,-0.204 0.068,-0.048 0.134,-0.099 0.2,-0.149 0.094,-0.072 0.186,-0.147 0.274,-0.224 0.065,-0.057 0.129,-0.114 0.191,-0.174 0.086,-0.081 0.17,-0.166 0.251,-0.252 0.033,-0.036 0.07,-0.067 0.104,-0.105 l 36.098,-40.387 c 0.015,-0.017 0.024,-0.036 0.039,-0.053 0.211,-0.241 0.402,-0.5 0.573,-0.773 0.024,-0.039 0.049,-0.078 0.072,-0.118 z M 55.708,12 h 213.584 v 260.613 h -30.098 c -3.313,0 -6,2.686 -6,6 V 313 H 55.708 Z m 206.174,272.613 -16.688,18.67 v -18.67 z"
   id="path1" />
	<path
   d="m 76.778,77.625 h 171.443 c 3.314,0 6,-2.687 6,-6 0,-3.313 -2.686,-6 -6,-6 H 76.778 c -3.313,0 -6,2.687 -6,6 0,3.313 2.687,6 6,6 z"
   id="path2" />
	<path
   d="m 76.778,138.209 h 171.443 c 3.314,0 6,-2.686 6,-6 0,-3.314 -2.686,-6 -6,-6 H 76.778 c -3.313,0 -6,2.686 -6,6 0,3.314 2.687,6 6,6 z"
   id="path3" />
	<path
   d="m 76.778,198.795 h 171.443 c 3.314,0 6,-2.687 6,-6 0,-3.314 -2.686,-6 -6,-6 H 76.778 c -3.313,0 -6,2.686 -6,6 0,3.313 2.687,6 6,6 z"
   id="path4" />
	<path
   d="M 130.917,247.374 H 76.778 c -3.313,0 -6,2.687 -6,6 0,3.314 2.687,6 6,6 h 54.139 c 3.313,0 6,-2.686 6,-6 0,-3.313 -2.687,-6 -6,-6 z"
   id="path5" />
</g>
<path
   style="fill:#ffd5d5;stroke-width:0.399233"
   d="m 61.12764,309.90682 c -0.702973,-0.42863 -1.556333,-1.31731 -1.896363,-1.97485 -0.554777,-1.07282 -0.618232,-15.86938 -0.618232,-144.16096 0,-128.291584 0.06346,-143.088138 0.618232,-144.16096 0.34003,-0.657543 1.19339,-1.546226 1.896363,-1.974852 1.258974,-0.767643 2.827635,-0.779321 104.67973,-0.779321 101.8521,0 103.42076,0.01168 104.67973,0.779321 2.74348,1.672791 2.51487,-9.9803171 2.51197,128.050652 -0.003,118.09243 -0.0404,124.93607 -0.69866,125.90715 -1.64537,2.42753 -33.80887,37.96895 -34.84535,38.50494 -0.99938,0.51679 -12.08435,0.59099 -88.09626,0.58969 -85.536872,-0.002 -86.973849,-0.0142 -88.23116,-0.78081 z m 168.7574,-25.66695 c 7.4e-4,-17.69798 0.0127,-17.79124 2.52328,-19.6339 1.08345,-0.79518 1.68343,-0.83121 15.66994,-0.94087 l 14.54336,-0.11403 V 145.39202 27.232977 H 165.80737 68.993127 V 163.77101 300.30904 h 80.445653 80.44565 z m 23.45438,-6.84322 c 1.37237,-1.53196 2.49521,-2.93201 2.49521,-3.11122 0,-0.17921 -3.41344,-0.32584 -7.58544,-0.32584 h -7.58544 v 8.80204 8.80204 l 5.09023,-5.69081 c 2.79963,-3.12995 6.21308,-6.94424 7.58544,-8.47621 z"
   id="path6" /><path
   style="fill:#ffd5d5;stroke-width:0.399233"
   d="m 85.437505,250.39455 c -1.355663,-0.82652 -2.471188,-2.84639 -2.471188,-4.47455 0,-1.48325 1.354749,-3.58189 2.819258,-4.36732 1.276813,-0.68476 2.928195,-0.72951 26.923675,-0.72951 23.99547,0 25.64686,0.0448 26.92368,0.72951 1.4645,0.78543 2.81925,2.88407 2.81925,4.36732 0,1.62816 -1.11552,3.64803 -2.47118,4.47455 -1.28972,0.78632 -1.94642,0.80572 -27.27175,0.80572 -25.325332,0 -25.98203,-0.0194 -27.271745,-0.80572 z"
   id="path7" /><path
   style="fill:#ffd5d5;stroke-width:0.399233"
   d="m 85.960572,195.7654 c -1.839487,-1.13624 -2.642916,-2.24169 -2.872323,-3.95205 -0.244785,-1.82504 0.531808,-3.60247 2.11972,-4.85152 l 1.059902,-0.83372 h 79.431899 79.43191 l 1.16555,0.82994 c 3.39158,2.41503 2.92213,6.98878 -0.92266,8.98923 -0.91524,0.47619 -12.94506,0.56069 -79.64718,0.55942 -75.794276,-0.002 -78.611415,-0.0277 -79.766818,-0.7413 z"
   id="path8" /><path
   style="fill:#ffd5d5;stroke-width:0.399233"
   d="m 84.818581,140.09499 c -2.940048,-2.77283 -2.213882,-6.64613 1.614787,-8.61316 0.635942,-0.32672 22.123572,-0.44801 79.367582,-0.44801 66.63685,0 78.65842,0.0847 79.57362,0.56091 3.84479,2.00045 4.31424,6.5742 0.92266,8.98923 l -1.16555,0.82995 H 165.67435 86.217042 Z"
   id="path9" /><path
   style="fill:#ffd5d5;stroke-width:0.399233"
   d="m 85.785575,85.989336 c -1.464509,-0.785424 -2.819258,-2.88407 -2.819258,-4.367322 0,-1.62816 1.115525,-3.648027 2.471188,-4.474553 1.313751,-0.800971 1.787161,-0.805715 80.369865,-0.805715 78.58271,0 79.05611,0.0047 80.36987,0.805715 1.35566,0.826526 2.47119,2.846393 2.47119,4.474553 0,1.483252 -1.35475,3.581898 -2.81926,4.367322 -1.3042,0.699449 -4.60135,0.72951 -80.0218,0.72951 -75.420445,0 -78.717599,-0.03005 -80.021795,-0.72951 z"
   id="path10" /></svg>
